<?xml version="1.0" encoding="utf-8"?>
<!-- Generator: Adobe Illustrator 21.0.0, SVG Export Plug-In . SVG Version: 6.00 Build 0)  -->
<svg version="1.1" id="Layer_1" xmlns="http://www.w3.org/2000/svg" xmlns:xlink="http://www.w3.org/1999/xlink" x="0px" y="0px"
	 viewBox="0 0 512 512" style="enable-background:new 0 0 512 512;" xml:space="preserve">
<style type="text/css">
	.st0{fill:#3D2F25;}
	.st1{fill:none;}
	.st2{fill:#81401D;}
	.st3{fill:#F1AF4E;}
	.st4{fill:#D9812D;}
</style>
<g>
	<path class="st0" d="M477.5,205.2c-10.4-40.3-40.1-74.7-40.1-74.7c10.9,3.2,23.8,14.5,23.8,14.5s-8-51.5-43.6-86.6
		c-40.7-40.1-80.5-35.1-80.5-35.1c4.1-3.2,22.4-10.6,22.4-10.6S336.1,0,304.8,0S256,15.4,256,15.4S238.6,0,207.2,0
		c-31.3,0-54.8,12.7-54.8,12.7s18.3,7.4,22.4,10.6c0,0-39.7-5.1-80.5,35.1C58.7,93.5,50.8,145,50.8,145s12.9-11.3,23.8-14.5
		c0,0-29.7,34.4-40.1,74.7s2,79.1,5.8,93c0,0,2.5-5.5,3.6-7.1c0,0,0.2,32.5,19.7,63.4s36.7,42.1,36.7,42.1s-0.7-9.3,0-11.7
		c0,0,13.4,27.1,34,43.4s30.4,24,43.3,32.4c0,0-0.8-10.6-1.2-13.2c0,0,13.9,9.7,35.5,25.6C233.5,489,253.2,507,256,512
		c2.8-5,22.5-23,44.1-38.8c21.6-15.9,35.5-25.6,35.5-25.6c-0.3,2.6-1.2,13.2-1.2,13.2c12.9-8.4,22.6-16,43.3-32.4
		c20.7-16.4,34-43.4,34-43.4c0.7,2.5,0,11.7,0,11.7s17.2-11.2,36.7-42.1c19.5-30.9,19.7-63.4,19.7-63.4c1.2,1.7,3.6,7.1,3.6,7.1
		C475.6,284.4,487.9,245.5,477.5,205.2z"/>
	<path class="st1" d="M158.4,166.7c0,0,8.4,7.3,17.8,8.4c0,0,0.3,10.7,8.8,16.2s20,6.4,26.3,5.6c0,0,6.6,6.1,0,28.1
		c0,0,10.2-13.7,13.1-24.1c2.8-10.4,2.3-14.5,2.3-14.5s9.1-4,8.9-23.5c0,0-4.1,13.2-12.1,12.6c-8-0.7-16.1-11.9-29.3-13.7
		s-19.2-2.8-25.1,0S158.4,166.7,158.4,166.7z"/>
	<path class="st1" d="M158.4,166.7c0,0,8.4,7.3,17.8,8.4c0,0,0.3,10.7,8.8,16.2c2,1.3,4.2,2.3,6.4,3.1c7.2,2.7,15.1,3.1,19.9,2.5
		c0,0,6.6,6.1,0,28.1c0,0,10.2-13.7,13.1-24.1c2.8-10.4,2.3-14.5,2.3-14.5s9.1-4,8.9-23.5c0,0-4.1,13.2-12.1,12.6
		c-8-0.7-16.1-11.9-29.3-13.7s-19.2-2.8-25.1,0S158.4,166.7,158.4,166.7z"/>
	<path class="st2" d="M156.1,183.1c0,0-3.5,14-0.8,25.1c3,12.6,6.5,18.6,9.9,23.4c1.9,1.8,3.7,3.5,5.2,5.2c6.6,7.9,10.2,15,10.2,15
		s7.1-14.4,11.1-19.8c0.3-0.4,0.6-0.8,0.9-1.2c-3.8-1.6-11.2-5.2-16.8-10.4C167.8,213.2,157.5,207.2,156.1,183.1z"/>
	<path class="st1" d="M176.2,175.2c-2.6,1.2-7.3,5.1-7.3,5.1s-0.7,13.9,6.9,19.8c7.6,5.9,21,7.5,27.9,4.1c4.8-2.3,0.7-5.6-3.3-6.1
		c-2.3-0.3-6.2-1.6-9.1-3.6c-2.2-0.8-4.4-1.9-6.4-3.1C176.5,185.9,176.2,175.2,176.2,175.2z"/>
	<path class="st1" d="M158.4,166.7c0,0,8.4,7.3,17.8,8.4c-2.6,1.2-7.3,5.1-7.3,5.1s-0.7,13.9,6.9,19.8c7.6,5.9,21,7.5,27.9,4.1
		c4.8-2.3,0.7-5.6-3.3-6.1c-2.3-0.3-6.2-1.6-9.1-3.6c7.2,2.7,15.1,3.1,19.9,2.5c0,0,6.6,6.1,0,28.1c0,0,10.2-13.7,13.1-24.1
		c2.8-10.4,2.3-14.5,2.3-14.5s9.1-4,8.9-23.5c0,0-4.1,13.2-12.1,12.6c-8-0.7-16.1-11.9-29.3-13.7s-19.2-2.8-25.1,0
		S158.4,166.7,158.4,166.7z"/>
	<path class="st1" d="M158.4,166.7c0,0,8.4,7.3,17.8,8.4c-2.6,1.2-7.3,5.1-7.3,5.1s-0.7,13.9,6.9,19.8c7.6,5.9,21,7.5,27.9,4.1
		c4.8-2.3,0.7-5.6-3.3-6.1c-2.3-0.3-6.2-1.6-9.1-3.6c7.2,2.7,15.1,3.1,19.9,2.5c0,0,6.6,6.1,0,28.1c0,0,10.2-13.7,13.1-24.1
		c2.8-10.4,2.3-14.5,2.3-14.5s9.1-4,8.9-23.5c0,0-4.1,13.2-12.1,12.6c-8-0.7-16.1-11.9-29.3-13.7s-19.2-2.8-25.1,0
		S158.4,166.7,158.4,166.7z"/>
	<g>
		<path class="st3" d="M195.1,50c24.1,10.7,36.1,22.7,45.2,36.8c-3.9-10.7-10.1-22.5-19.4-30.4c-21.2-17.9-34.1-19.3-63.1-14.5
			c-4.7,0.8-9.2,2-13.2,3.4C158,43.2,177.9,42.3,195.1,50z"/>
		<path class="st4" d="M195.1,69.4c0,0,18.2,3.2,32.7,16.7c11,10.2,14.2,13,17.8,19.6c-1-4.8-2.6-11.6-5.3-19
			c-9.2-14.1-21.1-26-45.2-36.8c-17.2-7.7-37.1-6.8-50.5-4.8c-11,3.9-18.4,9-18.4,9S160,53,179.9,66.7c21,14.5,26.8,20,29.4,21.7
			C208.3,82.2,199.4,72.2,195.1,69.4z"/>
		<path class="st2" d="M245.6,105.7c-3.6-6.5-6.9-9.3-17.8-19.6c-14.5-13.5-32.7-16.7-32.7-16.7c4.3,2.8,13.2,12.8,14.2,19
			c2.6,1.6,24.4,12.8,37.5,23.9C246.8,112.3,246.5,109.8,245.6,105.7z"/>
	</g>
	<g>
		<path class="st3" d="M110.2,82c23.7-10,42.9-0.7,51.3,3.5c4.8,2.4,11.3,7.6,16.1,11.7c0.4-0.1,0.9-0.1,1.3-0.2
			c0,0-12.2-17.5-33.4-24.1c-21.2-6.6-38.9,0.7-45.8,14.7c-1.2,2.4-2.1,4.8-2.9,7.3C99.4,89.5,103.6,84.8,110.2,82z"/>
		<path class="st2" d="M108.9,138.6c3.4,3.4,5.6,4.1,6.8,3.8c2-0.5,4.1-3.9,7.4-6c3.3-2.1,5.9-2.8,5.9-2.8s-6.7-6.2-6.7-19.5
			c0,0,7.6,2.8,15.2,1.6c0,0-5-3-8.4-6c-3.4-2.9-8.7-6.3-13.8-4.7c-5.2,1.6-8.2,8.4-8.2,8.4C105.3,121.3,107.1,131.4,108.9,138.6z"
			/>
		<path class="st4" d="M161.6,85.5c-8.4-4.2-27.7-13.5-51.3-3.5c-6.6,2.8-10.8,7.5-13.5,12.9c-3.7,11.9-2.4,24.2,4.3,34
			c3.1,4.6,5.7,7.7,7.8,9.8c-1.8-7.3-3.6-17.3-1.8-25c0,0,0.6-16.2,10.8-22c10.2-5.9,17.5-6.2,30.2,2.6
			c12.7,8.8,14.4,11.9,14.4,11.9s8.4-7.6,15.1-8.9C172.9,93.1,166.4,87.9,161.6,85.5z"/>
	</g>
	<g>
		<path class="st2" d="M101.7,152.2c0,0-3,1.3-7.2,3.6c-5.3,11.2-11.8,23-11.8,23S91.9,170.6,101.7,152.2z"/>
		<path class="st4" d="M82.6,178.8c0,0,6.5-11.9,11.8-23c-4.1,2.3-9.3,5.5-13.8,9.4c-9.1,7.9-29.1,31.1-30.5,72.7
			c5.4-21.2,21-33.9,34.6-41.8c13.6-7.9,33.3-26,41.5-35.4c8.2-9.4,22.4-25.7,28.6-31.1c0,0-12.7,9.1-24.6,18.4
			C118.4,157.3,89.9,174.3,82.6,178.8z"/>
		<path class="st2" d="M126.3,160.7c-8.2,9.4-27.9,27.5-41.5,35.4c-13.6,7.9-29.2,20.6-34.6,41.8c0,0,14.1-19,29.1-27.4
			c15-8.4,31.2-16.6,45.9-38.5c14.7-22,29.7-42.4,29.7-42.4C148.7,135,134.4,151.2,126.3,160.7z"/>
	</g>
	<g>
		<path class="st4" d="M94.7,309.2c0.5-27.8,16-48,16-48s-5.2,6.1-11.5,10.7c-6.3,4.6-12.6,11.8-16.3,22.6
			c-5,33,18.5,63.5,18.5,63.5C96.3,349.1,94.1,337,94.7,309.2z"/>
		<path class="st4" d="M88.1,250.3c14.8-19.7,27.7-37.6,35.3-52.7c-6.6,6.6-14.1,11.8-29.8,24.4c-25.1,20.1-33.3,38.9-33.7,61.5
			c-0.2,15.4,5.6,29.5,9.4,37C66.3,304.4,68.9,275.8,88.1,250.3z"/>
		<path class="st2" d="M136.2,222.4c0,0-7.8,13-19.8,25.3s-29.1,21-29.1,21c8.9-10,24.4-28.9,34.6-47.8s14.2-38.8,14.2-38.8
			c-5.1,7-8.8,11.5-12.8,15.5c-7.6,15.1-20.5,33-35.3,52.7c-19.2,25.5-21.8,54-18.8,70.2c1.8,3.5,3.1,5.6,3.1,5.6
			c1.6-16.9,10.5-31.6,10.5-31.6c3.7-10.9,10-18,16.3-22.6c6.3-4.6,11.5-10.7,11.5-10.7s-15.5,20.1-16,48
			c-0.5,27.8,1.6,39.9,6.8,48.9c-1.2-49,20.9-74.3,28.9-92.7C138.4,247,136.2,222.4,136.2,222.4z"/>
	</g>
	<g>
		<path class="st4" d="M135.6,284.1c-15.2,22.9-25.5,51.3-20.1,75.5c9,40.3,39,56.2,39,56.2c-0.9-2.1-1.7-4.3-2.2-6.6
			c-4-6.8-8-14.5-11.4-22.5C130.6,362.3,120.7,333,135.6,284.1z"/>
		<path class="st4" d="M208.4,411.1c0,0,7.3,12.6,10.8,25.6c0,0-19.4-15.4-30.6-27.1c-11.2-11.7-30.8-30.8-36.8-54.6
			c0,0-4,12.9,6.1,40.8c15.5,24.1,40.2,42.3,58.7,53.5c13,7.8,24.5,18.7,31.7,26.3c-2.2-8.4-6.2-19-13.5-31.8
			C221,419.5,208.4,411.1,208.4,411.1z"/>
	</g>
	<path class="st4" d="M204.3,179.4c0,0,4,3.6,4.6,4.8c0.5,1.2-5,5.1-10.7,3.8c-5.7-1.3-12.2-7.6-7.9-15.5c0.8-1.5,3-0.7,4.2,0
		c1.2,0.7,0.5,2.2,0.5,4.8c0,2.7,1.9,5.7,5.7,5.3C204.5,182.2,204.3,179.4,204.3,179.4z"/>
	<path class="st4" d="M298.3,331.3c-7.3-4.3-29.2-13.2-42.3-13.2c-13.1,0-35,8.9-42.3,13.2c-7.3,4.3-7.8,14.4-4.8,22.1
		c0,0,5.1-8.6,8.4-10.1c0,0-3.6,14.4,4.1,24s13.4,13.5,13.4,13.5s-0.3-11.9,2.1-16c0,0,3.5,15.5,19,27.1c15.5-11.6,19-27.1,19-27.1
		c2.5,4.1,2.1,16,2.1,16s5.6-4,13.4-13.5c7.8-9.6,4.1-24,4.1-24c3.3,1.5,8.4,10.1,8.4,10.1C306.1,345.6,305.6,335.6,298.3,331.3z"/>
	<path class="st3" d="M283.8,336.6c-6.9-6.9-18.8-8.3-27.8-8.3s-20.8,1.3-27.8,8.3c-1.5,1.5-0.9,15.1,4.1,22.3c0,0,3-9.3,5.6-11.4
		c0,0,0.2,9.9,7.1,17.2s10.9,9.9,10.9,9.9s4-2.6,10.9-9.9c6.9-7.3,7.1-17.2,7.1-17.2c2.6,2.1,5.6,11.4,5.6,11.4
		C284.6,351.6,285.2,338,283.8,336.6z"/>
	<path class="st2" d="M275.5,253c-6.1,0.2-13.5,2-19.5,2s-13.4-1.8-19.5-2c-6.1-0.2-9,1-9,1s9.1,0.2,14.2,5.1
		c5.1,5,9.1,11.7,10.9,14.4c1.8,2.6,3.3,4.3,3.3,4.3s1.5-1.7,3.3-4.3c1.8-2.6,5.8-9.4,10.9-14.4c5.1-5,14.2-5.1,14.2-5.1
		S281.6,252.8,275.5,253z"/>
	<path class="st1" d="M353.6,166.7c0,0-8.4,7.3-17.8,8.4c0,0-0.3,10.7-8.8,16.2s-20,6.4-26.3,5.6c0,0-6.6,6.1,0,28.1
		c0,0-10.2-13.7-13.1-24.1c-2.8-10.4-2.3-14.5-2.3-14.5s-9.1-4-8.9-23.5c0,0,4.1,13.2,12.1,12.6c8-0.7,16.1-11.9,29.3-13.7
		s19.2-2.8,25.1,0C349,164.6,353.6,166.7,353.6,166.7z"/>
	<path class="st3" d="M319.9,143.3c3.3-1.7,10.6-0.8,10.6-0.8c-4-13.9-18.5-23-27.9-24.6c-9.4-1.7-19.5,5.8-35.4,16.9
		c-5.8,4-9.2,9-11.2,13.7c-2-4.7-5.5-9.6-11.2-13.7c-15.9-11.1-25.9-18.5-35.4-16.9s-24,10.7-27.9,24.6c0,0,7.3-0.8,10.6,0.8
		c0,0-16,2.8-22,12.2c0,0,10.9-1.2,22.8,0.7c11.9,1.8,18.7,8.9,26.8,9.4c8.1,0.5,11.6-5.5,9.9-21.3c0,0,11.7,12.9,12.2,27.4
		s-3,21.1-10.9,38.5c-6.7,14.7-8.8,22.6-9.7,36.1c3-1.1,6.6-2.7,12.8-2.5c7.6,0.2,11.7,3,22,3s14.4-2.8,22-3
		c6.3-0.1,9.8,1.4,12.8,2.5c-0.9-13.5-3-21.3-9.7-36.1c-7.9-17.3-11.4-24-10.9-38.5c0.5-14.5,12.2-27.4,12.2-27.4
		c-1.7,15.9,1.8,21.8,9.9,21.3c8.1-0.5,14.9-7.6,26.8-9.4s22.8-0.7,22.8-0.7C336,146.1,319.9,143.3,319.9,143.3z"/>
	<path class="st1" d="M353.6,166.7c0,0-8.4,7.3-17.8,8.4c0,0-0.3,10.7-8.8,16.2c-2,1.3-4.2,2.3-6.4,3.1c-7.2,2.7-15.1,3.1-19.9,2.5
		c0,0-6.6,6.1,0,28.1c0,0-10.2-13.7-13.1-24.1c-2.8-10.4-2.3-14.5-2.3-14.5s-9.1-4-8.9-23.5c0,0,4.1,13.2,12.1,12.6
		c8-0.7,16.1-11.9,29.3-13.7s19.2-2.8,25.1,0C349,164.6,353.6,166.7,353.6,166.7z"/>
	<path class="st2" d="M355.9,183.1c0,0,3.5,14,0.8,25.1c-3,12.6-6.5,18.6-9.9,23.4c-1.9,1.8-3.7,3.5-5.2,5.2
		c-6.6,7.9-10.2,15-10.2,15s-7.1-14.4-11.1-19.8c-0.3-0.4-0.6-0.8-0.9-1.2c3.8-1.6,11.2-5.2,16.8-10.4
		C344.2,213.2,354.5,207.2,355.9,183.1z"/>
	<path class="st1" d="M335.8,175.2c2.6,1.2,7.3,5.1,7.3,5.1s0.7,13.9-6.9,19.8c-7.6,5.9-21,7.5-27.9,4.1c-4.8-2.3-0.7-5.6,3.3-6.1
		c2.3-0.3,6.2-1.6,9.1-3.6c2.2-0.8,4.4-1.9,6.4-3.1C335.5,185.9,335.8,175.2,335.8,175.2z"/>
	<path class="st1" d="M353.6,166.7c0,0-8.4,7.3-17.8,8.4c2.6,1.2,7.3,5.1,7.3,5.1s0.7,13.9-6.9,19.8c-7.6,5.9-21,7.5-27.9,4.1
		c-4.8-2.3-0.7-5.6,3.3-6.1c2.3-0.3,6.2-1.6,9.1-3.6c-7.2,2.7-15.1,3.1-19.9,2.5c0,0-6.6,6.1,0,28.1c0,0-10.2-13.7-13.1-24.1
		c-2.8-10.4-2.3-14.5-2.3-14.5s-9.1-4-8.9-23.5c0,0,4.1,13.2,12.1,12.6c8-0.7,16.1-11.9,29.3-13.7s19.2-2.8,25.1,0
		C349,164.6,353.6,166.7,353.6,166.7z"/>
	<g>
		<path class="st1" d="M353.6,166.7c0,0-8.4,7.3-17.8,8.4c2.6,1.2,7.3,5.1,7.3,5.1s0.7,13.9-6.9,19.8c-7.6,5.9-21,7.5-27.9,4.1
			c-4.8-2.3-0.7-5.6,3.3-6.1c2.3-0.3,6.2-1.6,9.1-3.6c-7.2,2.7-15.1,3.1-19.9,2.5c0,0-6.6,6.1,0,28.1c0,0-10.2-13.7-13.1-24.1
			c-2.8-10.4-2.3-14.5-2.3-14.5s-9.1-4-8.9-23.5c0,0,4.1,13.2,12.1,12.6c8-0.7,16.1-11.9,29.3-13.7s19.2-2.8,25.1,0
			C349,164.6,353.6,166.7,353.6,166.7z"/>
		<path class="st4" d="M336.8,121.6c-15.7-18-29.6-18-48.9-7.6s-29.1,23.3-31.9,23.3c-2.8,0-12.6-12.9-31.9-23.3
			s-33.2-10.4-48.9,7.6s-29,50.9-26.9,81.1c1,14.7,9.9,22.4,16.8,28.8c-3.4-4.8-6.9-10.8-9.9-23.4c-2.6-11.1,0.8-25.1,0.8-25.1
			c1.5,24.1,11.7,30.1,19.7,37.3c5.6,5.1,13,8.7,16.8,10.4c4-5,9.4-9.7,10.5-11.5c0,0-10.7,18.9-15.8,46c4.5,3.6,10.2,7.8,14.9,10.3
			c9.4,5.1,17.3,5.6,17.3,5.6s-16.4,2.6-33-6.1c-0.2-0.1-0.4-0.2-0.6-0.3c-0.4,3.9-0.6,7.4-0.6,10.6c5,2.4,11,4.7,15.7,5.4
			c10.1,1.5,20.3,1.3,20.3,1.3s-4.4,3.9-15.9,5.3c-8.7,1-14.5,0.2-18.9-1.3c1.7,6.9,5,11.5,9,14.9c8.1,6.9,12.9,9.7,24,5.3
			c11.1-4.5,20.2-7.6,25.4-10.7c5.3-3.1,8.6-10.1,2.6-21.5c-5.9-11.4-22.3-17-28.9-22.3s-9.3-15.5-4.6-22.1c0,0,2,8.3,5.5,7.3
			c0.6-0.2,1.2-0.4,1.9-0.6c0.9-13.5,3-21.3,9.7-36.1c7.9-17.3,11.4-24,10.9-38.5s-12.2-27.4-12.2-27.4c1.7,15.9-1.8,21.8-9.9,21.3
			c-8.1-0.5-14.9-7.6-26.8-9.4c-11.9-1.8-22.8-0.7-22.8-0.7c5.9-9.4,22-12.2,22-12.2c-3.3-1.7-10.6-0.8-10.6-0.8
			c4-13.9,18.5-23,27.9-24.6s19.5,5.8,35.4,16.9c5.8,4,9.2,9,11.2,13.7c2-4.7,5.5-9.6,11.2-13.7c15.9-11.1,25.9-18.5,35.4-16.9
			c9.4,1.7,24,10.7,27.9,24.6c0,0-7.3-0.8-10.6,0.8c0,0,16,2.8,22,12.2c0,0-10.9-1.2-22.8,0.7s-18.7,8.9-26.8,9.4
			c-8.1,0.5-11.6-5.5-9.9-21.3c0,0-11.7,12.9-12.2,27.4c-0.5,14.5,3,21.1,10.9,38.5c6.7,14.7,8.8,22.6,9.7,36.1
			c0.6,0.2,1.3,0.4,1.9,0.6c3.5,1,5.5-7.3,5.5-7.3c4.6,6.6,2,16.9-4.6,22.1s-23,10.9-28.9,22.3s-2.6,18.3,2.6,21.5
			c5.3,3.1,14.4,6.3,25.4,10.7c11.1,4.5,15.9,1.7,24-5.3c4-3.4,7.3-7.9,9-14.9c-4.4,1.6-10.2,2.4-18.9,1.3
			c-11.5-1.4-15.9-5.3-15.9-5.3s10.2,0.2,20.3-1.3c4.7-0.7,10.7-3.1,15.7-5.4c0.1-3.2-0.1-6.7-0.6-10.6c-0.2,0.1-0.4,0.2-0.6,0.3
			c-16.7,8.8-33,6.1-33,6.1s7.9-0.5,17.3-5.6c4.7-2.6,10.4-6.8,14.9-10.3c-5.1-27.1-15.8-46-15.8-46c1.1,1.8,6.5,6.5,10.5,11.5
			c3.8-1.6,11.2-5.2,16.8-10.4c7.9-7.3,18.2-13.2,19.7-37.3c0,0,3.5,14,0.8,25.1c-3,12.6-6.5,18.6-9.9,23.4
			c7-6.4,15.8-14.1,16.8-28.8C365.8,172.5,352.5,139.6,336.8,121.6z M194,161.8c13.2,1.8,21.3,13.1,29.3,13.7
			c8,0.7,12.1-12.6,12.1-12.6c0.2,19.5-8.9,23.5-8.9,23.5s0.5,4.1-2.3,14.5c-2.8,10.4-13.1,24.1-13.1,24.1c6.6-22,0-28.1,0-28.1
			c-4.8,0.6-12.7,0.2-19.9-2.5c2.9,2.1,6.8,3.3,9.1,3.6c4,0.5,8.1,3.8,3.3,6.1c-6.9,3.3-20.3,1.8-27.9-4.1
			c-7.6-5.9-6.9-19.8-6.9-19.8s4.6-4,7.3-5.1c-9.4-1.2-17.8-8.4-17.8-8.4s4.6-2.1,10.6-5C174.9,159,180.8,160,194,161.8z
			 M335.8,175.2c2.6,1.2,7.3,5.1,7.3,5.1s0.7,13.9-6.9,19.8c-7.6,5.9-21,7.5-27.9,4.1c-4.8-2.3-0.7-5.6,3.3-6.1
			c2.3-0.3,6.2-1.6,9.1-3.6c-7.2,2.7-15.1,3.1-19.9,2.5c0,0-6.6,6.1,0,28.1c0,0-10.2-13.7-13.1-24.1c-2.8-10.4-2.3-14.5-2.3-14.5
			s-9.1-4-8.9-23.5c0,0,4.1,13.2,12.1,12.6c8-0.7,16.1-11.9,29.3-13.7s19.2-2.8,25.1,0s10.6,5,10.6,5S345.2,174,335.8,175.2z"/>
	</g>
	<path class="st3" d="M309.2,256c0,0-4.1,5.2-13.9,12.2c-9.7,6.9-18.7,9.1-22.1,16.7c-3.5,7.6-2.3,9.1,4.5,13.9
		c6.8,4.8,14.5,6.9,21.3,8.3c6.8,1.3,16.2,0,20.6-5.8c0,0-9.5,1.3-19.2-1.8c-9.7-3.1-10.6-5.3-10.6-7.3c0-2,0.3,1,10.4-2.5
		c10.1-3.5,14.9-6.1,14.9-6.1s-10.3,1.7-16.1,1c-5.8-0.7-8.4-0.6-8.6-2.8c-0.2-2.2,7.4-3.8,11.6-7.9S308.5,262.3,309.2,256z"/>
	<g>
		<path class="st3" d="M282,20.4c-20.5,6.9-26,22.5-26,22.5s-5.5-15.5-26-22.5s-37.3-3.2-37.3-3.2c6.5,0,26.2,1.1,45.8,17
			c9.2,7.5,14.5,16.2,17.5,23.3c3-7.1,8.3-15.9,17.5-23.3c19.6-15.9,39.3-17,45.8-17C319.3,17.2,302.5,13.4,282,20.4z"/>
		<path class="st4" d="M273.5,34.1c-9.2,7.5-14.5,16.2-17.5,23.3c-3-7.1-8.3-15.9-17.5-23.3c-19.6-15.9-39.3-17-45.8-17
			c0,0,22.2,8.8,35.6,29.7C238.5,63,242.6,64.1,256,106c13.4-42,17.5-43.1,27.8-59.1c13.4-21,35.6-29.7,35.6-29.7
			C312.8,17.2,293.1,18.3,273.5,34.1z"/>
	</g>
	<g>
		<path class="st3" d="M316.9,50c-24.1,10.7-36.1,22.7-45.2,36.8c3.9-10.7,10.1-22.5,19.4-30.4c21.2-17.9,34.1-19.3,63.1-14.5
			c4.7,0.8,9.2,2,13.2,3.4C354,43.2,334.1,42.3,316.9,50z"/>
		<path class="st4" d="M316.9,69.4c0,0-18.2,3.2-32.7,16.7c-11,10.2-14.2,13-17.8,19.6c1-4.8,2.6-11.6,5.3-19
			c9.2-14.1,21.1-26,45.2-36.8c17.2-7.7,37.1-6.8,50.5-4.8c11,3.9,18.4,9,18.4,9S352,53,332.1,66.7c-21,14.5-26.8,20-29.4,21.7
			C303.7,82.2,312.6,72.2,316.9,69.4z"/>
		<path class="st2" d="M266.4,105.7c3.6-6.5,6.9-9.3,17.8-19.6c14.5-13.5,32.7-16.7,32.7-16.7c-4.3,2.8-13.2,12.8-14.2,19
			c-2.6,1.6-24.4,12.8-37.5,23.9C265.2,112.3,265.5,109.8,266.4,105.7z"/>
	</g>
	<g>
		<path class="st3" d="M401.8,82c-23.7-10-42.9-0.7-51.3,3.5c-4.8,2.4-11.3,7.6-16.1,11.7c-0.4-0.1-0.9-0.1-1.3-0.2
			c0,0,12.2-17.5,33.4-24.1c21.2-6.6,38.9,0.7,45.8,14.7c1.2,2.4,2.1,4.8,2.9,7.3C412.6,89.5,408.4,84.8,401.8,82z"/>
		<path class="st2" d="M403.1,138.6c-3.4,3.4-5.6,4.1-6.8,3.8c-2-0.5-4.1-3.9-7.4-6c-3.3-2.1-5.9-2.8-5.9-2.8s6.7-6.2,6.7-19.5
			c0,0-7.6,2.8-15.2,1.6c0,0,5-3,8.4-6c3.4-2.9,8.7-6.3,13.8-4.7c5.2,1.6,8.2,8.4,8.2,8.4C406.7,121.3,404.9,131.4,403.1,138.6z"/>
		<path class="st4" d="M350.4,85.5c8.4-4.2,27.7-13.5,51.3-3.5c6.6,2.8,10.8,7.5,13.5,12.9c3.7,11.9,2.4,24.2-4.3,34
			c-3.1,4.6-5.7,7.7-7.8,9.8c1.8-7.3,3.6-17.3,1.8-25c0,0-0.6-16.2-10.8-22c-10.2-5.9-17.5-6.2-30.2,2.6
			c-12.7,8.8-14.4,11.9-14.4,11.9s-8.4-7.6-15.1-8.9C339.1,93.1,345.6,87.9,350.4,85.5z"/>
	</g>
	<g>
		<path class="st2" d="M410.3,152.2c0,0,3,1.3,7.2,3.6c5.3,11.2,11.8,23,11.8,23S420.1,170.6,410.3,152.2z"/>
		<path class="st4" d="M429.4,178.8c0,0-6.5-11.9-11.8-23c4.1,2.3,9.3,5.5,13.8,9.4c9.1,7.9,29.1,31.1,30.5,72.7
			c-5.4-21.2-21-33.9-34.6-41.8c-13.6-7.9-33.3-26-41.5-35.4c-8.2-9.4-22.4-25.7-28.6-31.1c0,0,12.7,9.1,24.6,18.4
			C393.6,157.3,422.1,174.3,429.4,178.8z"/>
		<path class="st2" d="M385.7,160.7c8.2,9.4,27.9,27.5,41.5,35.4c13.6,7.9,29.2,20.6,34.6,41.8c0,0-14.1-19-29.1-27.4
			c-15-8.4-31.2-16.6-45.9-38.5c-14.7-22-29.7-42.4-29.7-42.4C363.3,135,377.6,151.2,385.7,160.7z"/>
	</g>
	<g>
		<path class="st1" d="M417.3,309.2c-0.5-27.8-16-48-16-48s5.2,6.1,11.5,10.7c6.3,4.6,12.6,11.8,16.3,22.6c5,33-18.5,63.5-18.5,63.5
			C415.7,349.1,417.9,337,417.3,309.2z"/>
		<path class="st4" d="M423.9,250.3c-14.8-19.7-27.7-37.6-35.3-52.7c6.6,6.6,14.1,11.8,29.8,24.4c25.1,20.1,33.3,38.9,33.7,61.5
			c0.2,15.4-5.6,29.5-9.4,37C445.7,304.4,443.1,275.8,423.9,250.3z"/>
		<path class="st2" d="M375.8,222.4c0,0,7.8,13,19.8,25.3s29.1,21,29.1,21c-8.9-10-24.4-28.9-34.6-47.8
			c-10.2-18.9-14.2-38.8-14.2-38.8c5.1,7,8.8,11.5,12.8,15.5c7.6,15.1,20.5,33,35.3,52.7c19.2,25.5,21.8,54,18.8,70.2
			c-1.8,3.5-3.1,5.6-3.1,5.6c-1.6-16.9-10.5-31.6-10.5-31.6c-3.7-10.9-10-18-16.3-22.6c-6.3-4.6-11.5-10.7-11.5-10.7
			s15.5,20.1,16,48c0.5,27.8-1.6,39.9-6.8,48.9c1.2-49-20.9-74.3-28.9-92.7C373.6,247,375.8,222.4,375.8,222.4z"/>
	</g>
	<g>
		<path class="st4" d="M376.4,284.1c15.2,22.9,25.5,51.3,20.1,75.5c-9,40.3-39,56.2-39,56.2c0.9-2.1,1.7-4.3,2.2-6.6
			c4-6.8,8-14.5,11.4-22.5C381.4,362.3,391.3,333,376.4,284.1z"/>
		<path class="st2" d="M376.4,284.1c-0.8-1.3-1.7-2.5-2.6-3.8c-13.4-19.1-11.7-38.3-11.7-38.3s-9.4,14.5-8.5,32.4
			c0.8,17.8,7.4,22.3,13.8,44.1c6.4,21.8,5.9,29.5,2.6,48c0,0-2-23.8-10.8-39.6c-8.8-15.9-13.7-22.6-13.7-22.6s3.5,23.1-2.6,45.5
			c-8,29.3-12.2,30.2-22.5,44.3c0,0,4.8-13.2,6.6-23.6c1.8-10.4-0.4-22-0.4-22s-4,20.5-18.9,34.8c-15,14.3-40.5,33-51.8,72.5
			c-11.2-39.4-36.8-58.2-51.8-72.5c-15-14.3-18.9-34.8-18.9-34.8s-2.2,11.7-0.4,22c1.8,10.4,6.6,23.6,6.6,23.6
			c-10.4-14.1-14.5-15-22.5-44.3c-6.1-22.3-2.6-45.5-2.6-45.5s-4.8,6.7-13.7,22.6c-8.8,15.9-10.8,39.6-10.8,39.6
			c-3.3-18.5-3.7-26.2,2.6-48c6.4-21.8,13-26.2,13.8-44.1c0.8-17.8-8.5-32.4-8.5-32.4s1.8,19.3-11.7,38.3c-0.9,1.2-1.7,2.5-2.6,3.8
			c-14.8,48.9-5,78.2,5.2,102.6c3.4,8.1,7.4,15.7,11.4,22.5c-3.4-13-1.3-26-1.3-26c2,4.4,4.4,8.6,7,12.6
			c-10.1-27.9-6.1-40.8-6.1-40.8c5.9,23.8,25.6,42.9,36.8,54.6c11.2,11.7,30.6,27.1,30.6,27.1c-3.5-13-10.8-25.6-10.8-25.6
			s12.6,8.4,26.4,32.6c7.3,12.7,11.3,23.3,13.5,31.8c4.8,5,7.7,8.5,7.7,8.5s2.9-3.5,7.7-8.5c2.2-8.4,6.2-19,13.5-31.8
			c13.9-24.2,26.4-32.6,26.4-32.6s-7.3,12.6-10.8,25.6c0,0,19.4-15.4,30.6-27.1c11.2-11.7,30.8-30.8,36.8-54.6c0,0,4,12.9-6.1,40.8
			c2.6-4,5-8.2,7-12.6c0,0,2.1,13-1.3,26c4-6.8,8-14.5,11.4-22.5C381.4,362.3,391.3,333,376.4,284.1z"/>
		<path class="st4" d="M303.6,411.1c0,0-7.3,12.6-10.8,25.6c0,0,19.4-15.4,30.6-27.1c11.2-11.7,30.8-30.8,36.8-54.6
			c0,0,4,12.9-6.1,40.8c-15.5,24.1-40.2,42.3-58.7,53.5c-13,7.8-24.5,18.7-31.7,26.3c2.2-8.4,6.2-19,13.5-31.8
			C291,419.5,303.6,411.1,303.6,411.1z"/>
	</g>
	<path class="st4" d="M307.7,179.4c0,0-4,3.6-4.6,4.8c-0.5,1.2,5,5.1,10.7,3.8s12.2-7.6,7.9-15.5c-0.8-1.5-3-0.7-4.2,0
		c-1.2,0.7-0.5,2.2-0.5,4.8c0,2.7-1.9,5.7-5.7,5.3C307.5,182.2,307.7,179.4,307.7,179.4z"/>
	<path class="st3" d="M202.8,256c0,0,4.1,5.2,13.9,12.2c9.7,6.9,18.7,9.1,22.1,16.7c3.5,7.6,2.3,9.1-4.5,13.9
		c-6.8,4.8-14.5,6.9-21.3,8.3c-6.8,1.3-16.2,0-20.6-5.8c0,0,9.5,1.3,19.2-1.8c9.7-3.1,10.6-5.3,10.6-7.3c0-2-0.3,1-10.4-2.5
		c-10.1-3.5-14.9-6.1-14.9-6.1s10.3,1.7,16.1,1c5.8-0.7,8.4-0.6,8.6-2.8c0.2-2.2-7.4-3.8-11.6-7.9
		C205.9,269.7,203.5,262.3,202.8,256z"/>
</g>
</svg>
